<svg width="339" height="319" viewBox="0 0 339 319" fill="none" xmlns="http://www.w3.org/2000/svg">
<rect width="310" height="319" rx="155" fill="url(#paint0_linear_397_52)"/>
<line x1="53.9881" y1="255.465" x2="149.222" y2="195.227" stroke="white" stroke-width="21" stroke-linecap="round"/>
<line x1="131.555" y1="173.065" x2="293.212" y2="64.8747" stroke="white" stroke-width="21" stroke-linecap="round"/>
<line x1="132.642" y1="171.229" x2="147.758" y2="197.142" stroke="white" stroke-width="25"/>
<path d="M277.531 61.8937L271.119 52.6859C269.854 50.8691 270.925 48.3546 273.112 48.0085L329.023 39.158C331.515 38.7634 333.351 41.4354 332.09 43.621L303.648 92.8894C302.539 94.8096 299.803 94.9054 298.563 93.0674L277.531 61.8937Z" fill="white" stroke="white"/>
<line x1="53.3899" y1="256.013" x2="66.4617" y2="247.462" stroke="#62A744" stroke-width="3"/>
<line x1="82.7439" y1="237.269" x2="95.8157" y2="228.718" stroke="#62A744" stroke-width="3"/>
<line x1="111.983" y1="219.518" x2="125.054" y2="210.967" stroke="#62A744" stroke-width="3"/>
<line x1="151.169" y1="160.333" x2="163.993" y2="151.415" stroke="#62A744" stroke-width="3"/>
<line x1="179.981" y1="140.766" x2="192.805" y2="131.848" stroke="#62A744" stroke-width="3"/>
<line x1="208.792" y1="121.198" x2="221.617" y2="112.28" stroke="#62A744" stroke-width="3"/>
<path d="M235.883 103.641L248.708 94.7233" stroke="#62A744" stroke-width="3"/>
<line x1="264.163" y1="84.8783" x2="276.987" y2="75.9604" stroke="#62A744" stroke-width="3"/>
<path d="M143.504 186.078C143.504 186.078 148.334 192.175 147.492 195.098C146.649 198.02 140.286 200.806 140.286 200.806" stroke="#62A744" stroke-width="3"/>
<path d="M140.122 180.728C140.122 180.728 134.7 175.152 135.242 172.159C135.784 169.166 141.832 165.751 141.832 165.751" stroke="#62A744" stroke-width="3"/>
<path d="M58.5994 193.609L57.0581 199.768C52.655 198.651 48.8025 199.136 45.5006 201.223C42.7138 202.985 40.9639 205.422 40.2509 208.534C39.5512 211.638 40.0821 214.584 41.8436 217.371C43.0708 219.312 44.5829 220.769 46.38 221.74C48.177 222.711 50.1195 223.138 52.2074 223.02C54.2954 222.901 56.2837 222.245 58.1724 221.052C59.7837 220.033 61.0686 218.805 62.0269 217.368C62.9768 215.917 63.75 213.894 64.3463 211.299L70.59 212.842C69.7645 216.303 68.653 219.048 67.2555 221.077C65.8496 223.094 63.9184 224.878 61.4618 226.431C56.9315 229.295 52.3143 230.207 47.6102 229.17C42.911 228.11 39.1421 225.335 36.3036 220.845C34.467 217.939 33.4886 214.944 33.3686 211.859C33.2618 208.765 33.996 205.76 35.5712 202.841C37.1596 199.915 39.367 197.559 42.1935 195.772C44.5973 194.253 47.23 193.3 50.0918 192.915C52.9667 192.521 55.8026 192.752 58.5994 193.609ZM73.5354 175.961C77.6562 173.356 82.1393 172.612 86.9845 173.726C91.843 174.833 95.6289 177.532 98.3421 181.825C101.03 186.078 101.839 190.604 100.769 195.402C99.7116 200.193 97.0962 203.907 92.9226 206.545C88.5508 209.308 83.9628 210.092 79.1585 208.896C74.3542 207.699 70.6372 205.021 68.0074 200.861C66.2459 198.074 65.2999 195.086 65.1694 191.896C65.0389 188.707 65.7192 185.689 67.2103 182.843C68.7063 179.975 70.8146 177.681 73.5354 175.961ZM76.9072 181.427C74.2128 183.13 72.5404 185.5 71.89 188.536C71.2396 191.572 71.8286 194.536 73.6569 197.428C75.6939 200.651 78.4609 202.47 81.9577 202.884C84.6806 203.215 87.2044 202.645 89.5289 201.176C92.1573 199.515 93.7949 197.149 94.4418 194.078C95.0887 191.007 94.5314 188.079 92.7699 185.292C91.0167 182.518 88.6037 180.762 85.5309 180.024C82.4497 179.273 79.5751 179.741 76.9072 181.427Z" fill="white"/>
<path d="M125.49 142.406L107.584 112.945L113.272 109.488L128.111 133.902L137.965 127.913L123.126 103.498L128.793 100.053L143.633 124.468L149.621 120.828L155.367 130.281L150.119 133.471L147.441 129.064L125.49 142.406ZM151.836 85.0331C156.002 82.5011 160.497 81.8349 165.322 83.0347C170.161 84.2262 173.899 86.9918 176.536 91.3312C179.149 95.6306 179.879 100.17 178.724 104.949C177.583 109.72 174.903 113.388 170.684 115.952C166.264 118.639 161.663 119.342 156.881 118.061C152.098 116.781 148.429 114.038 145.872 109.832C144.16 107.014 143.266 104.01 143.192 100.819C143.117 97.6281 143.851 94.6226 145.391 91.8028C146.937 88.9615 149.086 86.7049 151.836 85.0331ZM155.112 90.5574C152.388 92.2129 150.674 94.5528 149.97 97.5768C149.267 100.601 149.804 103.575 151.581 106.499C153.561 109.757 156.296 111.624 159.785 112.1C162.502 112.478 165.035 111.953 167.385 110.525C170.042 108.91 171.721 106.573 172.422 103.514C173.122 100.455 172.616 97.517 170.904 94.6997C169.2 91.8957 166.818 90.0979 163.759 89.3061C160.691 88.501 157.809 88.9181 155.112 90.5574ZM182.389 67.4778L188.057 64.0328L212.236 82.4689L215.52 80.4725L221.4 90.1461L215.972 93.4451L213.294 89.0388L193.026 101.358L195.704 105.764L190.276 109.063L184.396 99.3897L187.661 97.4055L182.389 67.4778ZM190.021 73.5359L193.529 93.8387L206.407 86.0113L190.021 73.5359ZM214.033 48.2441L219.701 44.7991L243.88 63.2352L247.165 61.2388L253.044 70.9124L247.617 74.2113L244.939 69.8051L224.67 82.1244L227.348 86.5307L221.921 89.8296L216.041 80.156L219.305 78.1717L214.033 48.2441ZM221.665 54.3021L225.174 74.605L238.052 66.7776L221.665 54.3021Z" fill="white"/>
<line x1="289.728" y1="80.8053" x2="314.763" y2="64.5805" stroke="url(#paint1_linear_397_52)"/>
<defs>
<linearGradient id="paint0_linear_397_52" x1="65" y1="310.5" x2="250.012" y2="6.61642" gradientUnits="userSpaceOnUse">
<stop stop-color="#62A744"/>
<stop offset="1" stop-color="#8BC34A"/>
</linearGradient>
<linearGradient id="paint1_linear_397_52" x1="290.272" y1="81.6444" x2="315.307" y2="65.4196" gradientUnits="userSpaceOnUse">
<stop stop-color="#62A744"/>
<stop offset="1" stop-color="white"/>
</linearGradient>
</defs>
</svg>
