<svg width="339" height="318" viewBox="0 0 339 318" fill="none" xmlns="http://www.w3.org/2000/svg">
<line x1="53.9881" y1="254.465" x2="149.222" y2="194.227" stroke="white" stroke-width="21" stroke-linecap="round"/>
<line x1="131.555" y1="172.065" x2="293.212" y2="63.8747" stroke="white" stroke-width="21" stroke-linecap="round"/>
<line x1="132.642" y1="170.229" x2="147.758" y2="196.142" stroke="white" stroke-width="25"/>
<path d="M277.531 60.8937L271.119 51.6859C269.854 49.8691 270.925 47.3546 273.112 47.0085L329.023 38.158C331.515 37.7634 333.351 40.4354 332.09 42.621L303.648 91.8894C302.539 93.8096 299.803 93.9054 298.563 92.0674L277.531 60.8937Z" fill="white" stroke="white"/>
<line x1="53.3899" y1="255.013" x2="66.4617" y2="246.462" stroke="#62A744" stroke-width="3"/>
<line x1="82.7439" y1="236.269" x2="95.8157" y2="227.718" stroke="#62A744" stroke-width="3"/>
<line x1="111.983" y1="218.518" x2="125.054" y2="209.967" stroke="#62A744" stroke-width="3"/>
<line x1="151.169" y1="159.333" x2="163.993" y2="150.415" stroke="#62A744" stroke-width="3"/>
<line x1="179.981" y1="139.766" x2="192.805" y2="130.848" stroke="#62A744" stroke-width="3"/>
<line x1="208.792" y1="120.198" x2="221.617" y2="111.28" stroke="#62A744" stroke-width="3"/>
<path d="M235.883 102.641L248.708 93.7233" stroke="#62A744" stroke-width="3"/>
<line x1="264.163" y1="83.8783" x2="276.987" y2="74.9604" stroke="#62A744" stroke-width="3"/>
<path d="M143.504 185.078C143.504 185.078 148.334 191.175 147.492 194.098C146.649 197.02 140.286 199.806 140.286 199.806" stroke="#62A744" stroke-width="3"/>
<path d="M140.122 179.728C140.122 179.728 134.7 174.152 135.242 171.159C135.784 168.166 141.832 164.751 141.832 164.751" stroke="#62A744" stroke-width="3"/>
<path d="M58.5994 192.609L57.0581 198.768C52.655 197.651 48.8025 198.136 45.5006 200.223C42.7138 201.985 40.9639 204.422 40.2509 207.534C39.5512 210.638 40.0821 213.584 41.8436 216.371C43.0708 218.312 44.5829 219.769 46.38 220.74C48.177 221.711 50.1195 222.138 52.2074 222.02C54.2954 221.901 56.2837 221.245 58.1724 220.052C59.7837 219.033 61.0686 217.805 62.0269 216.368C62.9768 214.917 63.75 212.894 64.3463 210.299L70.59 211.842C69.7645 215.303 68.653 218.048 67.2555 220.077C65.8496 222.094 63.9184 223.878 61.4618 225.431C56.9315 228.295 52.3143 229.207 47.6102 228.17C42.911 227.11 39.1421 224.335 36.3036 219.845C34.467 216.939 33.4886 213.944 33.3686 210.859C33.2618 207.765 33.996 204.76 35.5712 201.841C37.1596 198.915 39.367 196.559 42.1935 194.772C44.5973 193.253 47.23 192.3 50.0918 191.915C52.9667 191.521 55.8026 191.752 58.5994 192.609ZM73.5354 174.961C77.6562 172.356 82.1393 171.612 86.9845 172.726C91.843 173.833 95.6289 176.532 98.3421 180.825C101.03 185.078 101.839 189.604 100.769 194.402C99.7116 199.193 97.0962 202.907 92.9226 205.545C88.5508 208.308 83.9628 209.092 79.1585 207.896C74.3542 206.699 70.6372 204.021 68.0074 199.861C66.2459 197.074 65.2999 194.086 65.1694 190.896C65.0389 187.707 65.7192 184.689 67.2103 181.843C68.7063 178.975 70.8146 176.681 73.5354 174.961ZM76.9072 180.427C74.2128 182.13 72.5404 184.5 71.89 187.536C71.2396 190.572 71.8286 193.536 73.6569 196.428C75.6939 199.651 78.4609 201.47 81.9577 201.884C84.6806 202.215 87.2044 201.645 89.5289 200.176C92.1573 198.515 93.7949 196.149 94.4418 193.078C95.0887 190.007 94.5314 187.079 92.7699 184.292C91.0167 181.518 88.6037 179.762 85.5309 179.024C82.4497 178.273 79.5751 178.741 76.9072 180.427Z" fill="white"/>
<path d="M125.49 141.406L107.584 111.945L113.272 108.488L128.111 132.902L137.965 126.913L123.126 102.498L128.793 99.0534L143.633 123.468L149.621 119.828L155.367 129.281L150.119 132.471L147.441 128.064L125.49 141.406ZM151.836 84.0331C156.002 81.5011 160.497 80.8349 165.322 82.0347C170.161 83.2262 173.899 85.9918 176.536 90.3312C179.149 94.6306 179.879 99.1699 178.724 103.949C177.583 108.72 174.903 112.388 170.684 114.952C166.264 117.639 161.663 118.342 156.881 117.061C152.098 115.781 148.429 113.038 145.872 108.832C144.16 106.014 143.266 103.01 143.192 99.8192C143.117 96.6281 143.851 93.6226 145.391 90.8028C146.937 87.9615 149.086 85.7049 151.836 84.0331ZM155.112 89.5574C152.388 91.2129 150.674 93.5528 149.97 96.5768C149.267 99.6009 149.804 102.575 151.581 105.499C153.561 108.757 156.296 110.624 159.785 111.1C162.502 111.478 165.035 110.953 167.385 109.525C170.042 107.91 171.721 105.573 172.422 102.514C173.122 99.455 172.616 96.517 170.904 93.6997C169.2 90.8957 166.818 89.0979 163.759 88.3061C160.691 87.501 157.809 87.9181 155.112 89.5574ZM182.389 66.4778L188.057 63.0328L212.236 81.4689L215.52 79.4725L221.4 89.1461L215.972 92.4451L213.294 88.0388L193.026 100.358L195.704 104.764L190.276 108.063L184.396 98.3897L187.661 96.4055L182.389 66.4778ZM190.021 72.5359L193.529 92.8387L206.407 85.0113L190.021 72.5359ZM214.033 47.2441L219.701 43.7991L243.88 62.2352L247.165 60.2388L253.044 69.9124L247.617 73.2113L244.939 68.8051L224.67 81.1244L227.348 85.5307L221.921 88.8296L216.041 79.156L219.305 77.1717L214.033 47.2441ZM221.665 53.3021L225.174 73.605L238.052 65.7776L221.665 53.3021Z" fill="white"/>
<line x1="289.728" y1="79.8053" x2="314.763" y2="63.5805" stroke="url(#paint0_linear_397_52)"/>
<defs>
<linearGradient id="paint0_linear_397_52" x1="290.272" y1="80.6444" x2="315.307" y2="64.4196" gradientUnits="userSpaceOnUse">
<stop stop-color="#62A744"/>
<stop offset="1" stop-color="white"/>
</linearGradient>
</defs>
</svg>
